<?xml version="1.0" encoding="UTF-8"?>
<svg version="1.1" xmlns="http://www.w3.org/2000/svg" width="978" height="986">
<path d="M0 0 C3.82132154 -0.00218403 7.64235227 -0.02041011 11.46362305 -0.03930664 C34.48149256 -0.09480157 56.91886326 1.47813721 79.59448242 5.43530273 C80.49552704 5.58969818 81.39657166 5.74409363 82.32492065 5.90316772 C148.11795037 17.19340414 211.02896 40.98364064 266.65698242 78.18530273 C267.41462891 78.69077637 268.17227539 79.19625 268.95288086 79.71704102 C277.72834879 85.59921883 286.28885762 91.73396044 294.65698242 98.18530273 C295.20032227 98.60247559 295.74366211 99.01964844 296.3034668 99.44946289 C314.72239839 113.62069903 331.69924417 129.16589828 348.15698242 145.56030273 C349.41212646 146.8084375 349.41212646 146.8084375 350.69262695 148.08178711 C355.55347929 152.95532078 360.19314566 157.94686732 364.65698242 163.18530273 C365.53428854 164.19467644 366.41187104 165.20381004 367.28979492 166.21264648 C374.76523153 174.94180052 381.78708334 183.97362201 388.65698242 193.18530273 C389.2014502 193.91410645 389.74591797 194.64291016 390.30688477 195.39379883 C437.88105504 259.36798025 468.96514561 335.87228589 479.23510742 414.95336914 C479.51236038 417.07737071 479.80362013 419.19959956 480.11010742 421.31958008 C485.61353526 460.06300044 485.50949521 503.50238399 479.65698242 542.18530273 C479.45043254 543.60580373 479.24440407 545.02638062 479.03881836 546.44702148 C476.03442329 566.97550116 472.01285278 587.12997825 466.65698242 607.18530273 C466.38805176 608.20414551 466.11912109 609.22298828 465.84204102 610.27270508 C459.58755217 633.67252664 451.29572476 656.74084631 440.87866211 678.61401367 C439.51883375 681.4760665 438.1860461 684.35007276 436.85229492 687.22436523 C423.59450363 715.56950996 407.41057825 742.13913703 388.65698242 767.18530273 C387.9845752 768.08732422 387.9845752 768.08732422 387.29858398 769.00756836 C379.05460409 780.02866487 370.19471503 790.50711954 360.92260742 800.67358398 C359.68824271 802.04202624 358.46005905 803.41660133 357.26538086 804.81982422 C352.14014289 810.81404987 346.62543069 816.40298682 341.05200195 821.97558594 C339.41870794 823.61106155 337.79359772 825.25437981 336.16870117 826.89819336 C330.37372951 832.72351093 324.48678132 838.17719649 318.03613281 843.27978516 C315.72534007 845.13055349 313.5288062 847.06282265 311.34448242 849.06030273 C287.42107328 870.48992895 259.7016164 887.74933611 231.65698242 903.18530273 C230.85164062 903.6285791 230.04629883 904.07185547 229.21655273 904.52856445 C211.73634475 914.08103849 193.62956404 922.06580359 175.0612793 929.25317383 C173.51617953 929.85219809 171.97302362 930.45627412 170.43237305 931.06665039 C139.08869923 943.46704434 105.84147986 951.21836706 72.53198242 955.99780273 C71.84269653 956.09726196 71.15341064 956.19672119 70.4432373 956.29919434 C65.52232251 956.99897776 60.59449775 957.61505952 55.65698242 958.18530273 C54.86584045 958.27852814 54.07469849 958.37175354 53.25958252 958.46780396 C36.77666637 960.35370963 20.3586798 960.5454051 3.78198242 960.49780273 C2.41863004 960.49558029 1.05527758 960.49340377 -0.30807495 960.49127197 C-20.14117605 960.44831332 -39.68906623 960.07127753 -59.34301758 957.18530273 C-60.03518372 957.08584351 -60.72734985 956.98638428 -61.44049072 956.88391113 C-107.47179571 950.25564842 -151.97910397 938.50569222 -194.34301758 919.18530273 C-194.96221069 918.90386414 -195.58140381 918.62242554 -196.21936035 918.3324585 C-213.85412321 910.29760039 -230.81744093 901.32438325 -247.34301758 891.18530273 C-248.21700195 890.65130859 -249.09098633 890.11731445 -249.99145508 889.56713867 C-273.91037939 874.89044309 -296.77694551 858.09719644 -317.32348633 838.95874023 C-319.48760624 836.94674256 -321.70641039 835.01540682 -323.95239258 833.09545898 C-329.13463759 828.57858106 -333.96741401 823.71075231 -338.81591797 818.84277344 C-340.40261704 817.25071307 -341.994595 815.66407283 -343.5871582 814.07788086 C-349.04900212 808.61992502 -354.35749263 803.08686043 -359.34301758 797.18530273 C-360.21986361 796.17552932 -361.0974238 795.16637543 -361.97583008 794.15795898 C-368.89187744 786.08201027 -375.41157084 777.74799355 -381.79370117 769.24487305 C-383.20311894 767.37127578 -384.62499329 765.50794673 -386.05004883 763.64624023 C-399.3293819 746.12189483 -410.74707213 727.26368445 -420.95483398 707.81323242 C-422.31470654 705.23889754 -423.70522177 702.68357586 -425.10473633 700.13061523 C-450.87627361 652.70475121 -466.97522528 598.90240741 -473.92114258 545.41723633 C-474.19839554 543.29323476 -474.48965529 541.17100591 -474.79614258 539.05102539 C-480.2975143 500.32207985 -480.218666 456.85236837 -474.34301758 418.18530273 C-474.13135735 416.74865106 -473.91994443 415.31196293 -473.70874023 413.87524414 C-462.84449124 340.82015899 -437.46469389 271.22344095 -395.34301758 210.18530273 C-394.90376953 209.5477002 -394.46452148 208.91009766 -394.01196289 208.25317383 C-387.50878605 198.8418397 -380.78722225 189.66021603 -373.60717773 180.75366211 C-372.41295892 179.27207431 -371.22732252 177.78358059 -370.04223633 176.29467773 C-365.2851444 170.3799986 -360.28705983 164.75585861 -355.11645508 159.20483398 C-353.08492964 157.01926618 -351.13219475 154.77916044 -349.19067383 152.51342773 C-344.95754348 147.65672827 -340.41834283 143.11018459 -335.85498047 138.56689453 C-334.40777373 137.12505052 -332.96599732 135.67793158 -331.5246582 134.23022461 C-326.30073004 129.00221119 -320.97274919 123.97360712 -315.34301758 119.18530273 C-314.25973296 118.23621058 -313.17765162 117.28574282 -312.09692383 116.33374023 C-303.80073965 109.09796088 -295.21194539 102.32247801 -286.3996582 95.72729492 C-284.49336134 94.29802487 -282.59716958 92.85634672 -280.70239258 91.41186523 C-263.59753492 78.48945312 -245.10759545 67.50281512 -226.34301758 57.18530273 C-225.4994873 56.72027344 -224.65595703 56.25524414 -223.78686523 55.77612305 C-202.15375209 43.93405498 -179.56273618 34.43948842 -156.34301758 26.18530273 C-155.30516113 25.81163574 -154.26730469 25.43796875 -153.19799805 25.05297852 C-123.20348575 14.32922012 -92.74268899 8.08196421 -61.30010986 3.47888184 C-59.48304657 3.20630817 -57.66941863 2.91109593 -55.85620117 2.61401367 C-37.40360199 -0.31103708 -18.63202648 -0.00118668 0 0 Z " fill="#8E46B2" transform="translate(483.343017578125,14.814697265625)"/>
<path d="M0 0 C3.82132154 -0.00218403 7.64235227 -0.02041011 11.46362305 -0.03930664 C34.48149256 -0.09480157 56.91886326 1.47813721 79.59448242 5.43530273 C80.49552704 5.58969818 81.39657166 5.74409363 82.32492065 5.90316772 C148.11795037 17.19340414 211.02896 40.98364064 266.65698242 78.18530273 C267.41462891 78.69077637 268.17227539 79.19625 268.95288086 79.71704102 C277.72834879 85.59921883 286.28885762 91.73396044 294.65698242 98.18530273 C295.20032227 98.60247559 295.74366211 99.01964844 296.3034668 99.44946289 C314.72239839 113.62069903 331.69924417 129.16589828 348.15698242 145.56030273 C349.41212646 146.8084375 349.41212646 146.8084375 350.69262695 148.08178711 C355.55347929 152.95532078 360.19314566 157.94686732 364.65698242 163.18530273 C365.53428854 164.19467644 366.41187104 165.20381004 367.28979492 166.21264648 C374.76523153 174.94180052 381.78708334 183.97362201 388.65698242 193.18530273 C389.2014502 193.91410645 389.74591797 194.64291016 390.30688477 195.39379883 C437.88105504 259.36798025 468.96514561 335.87228589 479.23510742 414.95336914 C479.51236038 417.07737071 479.80362013 419.19959956 480.11010742 421.31958008 C485.61353526 460.06300044 485.50949521 503.50238399 479.65698242 542.18530273 C479.45043254 543.60580373 479.24440407 545.02638062 479.03881836 546.44702148 C476.03442329 566.97550116 472.01285278 587.12997825 466.65698242 607.18530273 C466.38805176 608.20414551 466.11912109 609.22298828 465.84204102 610.27270508 C459.58755217 633.67252664 451.29572476 656.74084631 440.87866211 678.61401367 C439.51883375 681.4760665 438.1860461 684.35007276 436.85229492 687.22436523 C423.59450363 715.56950996 407.41057825 742.13913703 388.65698242 767.18530273 C387.9845752 768.08732422 387.9845752 768.08732422 387.29858398 769.00756836 C379.05460409 780.02866487 370.19471503 790.50711954 360.92260742 800.67358398 C359.68824271 802.04202624 358.46005905 803.41660133 357.26538086 804.81982422 C352.14014289 810.81404987 346.62543069 816.40298682 341.05200195 821.97558594 C339.41870794 823.61106155 337.79359772 825.25437981 336.16870117 826.89819336 C330.37372951 832.72351093 324.48678132 838.17719649 318.03613281 843.27978516 C315.72534007 845.13055349 313.5288062 847.06282265 311.34448242 849.06030273 C287.42107328 870.48992895 259.7016164 887.74933611 231.65698242 903.18530273 C230.85164062 903.6285791 230.04629883 904.07185547 229.21655273 904.52856445 C211.73634475 914.08103849 193.62956404 922.06580359 175.0612793 929.25317383 C173.51617953 929.85219809 171.97302362 930.45627412 170.43237305 931.06665039 C139.08869923 943.46704434 105.84147986 951.21836706 72.53198242 955.99780273 C71.84269653 956.09726196 71.15341064 956.19672119 70.4432373 956.29919434 C65.52232251 956.99897776 60.59449775 957.61505952 55.65698242 958.18530273 C54.86584045 958.27852814 54.07469849 958.37175354 53.25958252 958.46780396 C36.77666637 960.35370963 20.3586798 960.5454051 3.78198242 960.49780273 C2.41863004 960.49558029 1.05527758 960.49340377 -0.30807495 960.49127197 C-20.14117605 960.44831332 -39.68906623 960.07127753 -59.34301758 957.18530273 C-60.03518372 957.08584351 -60.72734985 956.98638428 -61.44049072 956.88391113 C-107.47179571 950.25564842 -151.97910397 938.50569222 -194.34301758 919.18530273 C-194.96221069 918.90386414 -195.58140381 918.62242554 -196.21936035 918.3324585 C-213.85412321 910.29760039 -230.81744093 901.32438325 -247.34301758 891.18530273 C-248.21700195 890.65130859 -249.09098633 890.11731445 -249.99145508 889.56713867 C-273.91037939 874.89044309 -296.77694551 858.09719644 -317.32348633 838.95874023 C-319.48760624 836.94674256 -321.70641039 835.01540682 -323.95239258 833.09545898 C-329.13463759 828.57858106 -333.96741401 823.71075231 -338.81591797 818.84277344 C-340.40261704 817.25071307 -341.994595 815.66407283 -343.5871582 814.07788086 C-349.04900212 808.61992502 -354.35749263 803.08686043 -359.34301758 797.18530273 C-360.21986361 796.17552932 -361.0974238 795.16637543 -361.97583008 794.15795898 C-368.89187744 786.08201027 -375.41157084 777.74799355 -381.79370117 769.24487305 C-383.20311894 767.37127578 -384.62499329 765.50794673 -386.05004883 763.64624023 C-399.3293819 746.12189483 -410.74707213 727.26368445 -420.95483398 707.81323242 C-422.31470654 705.23889754 -423.70522177 702.68357586 -425.10473633 700.13061523 C-450.87627361 652.70475121 -466.97522528 598.90240741 -473.92114258 545.41723633 C-474.19839554 543.29323476 -474.48965529 541.17100591 -474.79614258 539.05102539 C-480.2975143 500.32207985 -480.218666 456.85236837 -474.34301758 418.18530273 C-474.13135735 416.74865106 -473.91994443 415.31196293 -473.70874023 413.87524414 C-462.84449124 340.82015899 -437.46469389 271.22344095 -395.34301758 210.18530273 C-394.90376953 209.5477002 -394.46452148 208.91009766 -394.01196289 208.25317383 C-387.50878605 198.8418397 -380.78722225 189.66021603 -373.60717773 180.75366211 C-372.41295892 179.27207431 -371.22732252 177.78358059 -370.04223633 176.29467773 C-365.2851444 170.3799986 -360.28705983 164.75585861 -355.11645508 159.20483398 C-353.08492964 157.01926618 -351.13219475 154.77916044 -349.19067383 152.51342773 C-344.95754348 147.65672827 -340.41834283 143.11018459 -335.85498047 138.56689453 C-334.40777373 137.12505052 -332.96599732 135.67793158 -331.5246582 134.23022461 C-326.30073004 129.00221119 -320.97274919 123.97360712 -315.34301758 119.18530273 C-314.25973296 118.23621058 -313.17765162 117.28574282 -312.09692383 116.33374023 C-303.80073965 109.09796088 -295.21194539 102.32247801 -286.3996582 95.72729492 C-284.49336134 94.29802487 -282.59716958 92.85634672 -280.70239258 91.41186523 C-263.59753492 78.48945312 -245.10759545 67.50281512 -226.34301758 57.18530273 C-225.4994873 56.72027344 -224.65595703 56.25524414 -223.78686523 55.77612305 C-202.15375209 43.93405498 -179.56273618 34.43948842 -156.34301758 26.18530273 C-155.30516113 25.81163574 -154.26730469 25.43796875 -153.19799805 25.05297852 C-123.20348575 14.32922012 -92.74268899 8.08196421 -61.30010986 3.47888184 C-59.48304657 3.20630817 -57.66941863 2.91109593 -55.85620117 2.61401367 C-37.40360199 -0.31103708 -18.63202648 -0.00118668 0 0 Z M-60.34301758 67.18530273 C-62.40275912 67.48973393 -64.46264678 67.79317874 -66.52270508 68.09545898 C-154.60374188 81.63151294 -234.08431526 127.00030059 -296.65551758 189.37280273 C-297.13173553 189.84634186 -297.60795349 190.31988098 -298.09860229 190.80776978 C-303.73643496 196.42154497 -309.22092526 202.09544552 -314.34301758 208.18530273 C-314.84760498 208.78318604 -315.35219238 209.38106934 -315.87207031 209.99707031 C-334.44463987 232.21250081 -350.25554696 255.91012563 -364.34301758 281.18530273 C-364.79 281.98597168 -365.23698242 282.78664063 -365.69750977 283.61157227 C-382.05504154 313.1882037 -393.86490985 344.81794474 -402.28051758 377.49780273 C-402.46633392 378.21775421 -402.65215027 378.93770569 -402.84359741 379.67947388 C-406.70771247 394.77312569 -409.47482409 409.91359402 -411.46801758 425.37280273 C-411.63688477 426.60321289 -411.80575195 427.83362305 -411.97973633 429.10131836 C-414.33073452 447.17808788 -414.57934139 465.4149724 -414.59301758 483.62280273 C-414.59402466 484.57175415 -414.59503174 485.52070557 -414.59606934 486.49841309 C-414.58416702 503.2365678 -413.67034733 519.59096966 -411.34301758 536.18530273 C-411.19848145 537.23476074 -411.05394531 538.28421875 -410.9050293 539.36547852 C-408.70304356 554.87204256 -405.23778356 570.02514487 -401.34301758 585.18530273 C-401.14627441 585.97001953 -400.94953125 586.75473633 -400.74682617 587.56323242 C-394.87946321 610.85504373 -386.35839267 633.38664973 -376.34301758 655.18530273 C-375.61880078 656.79716579 -374.89483411 658.40914127 -374.17114258 660.02124023 C-354.01419309 704.32040337 -323.93076807 743.50145834 -289.79556274 777.9079895 C-288.38575135 779.32970804 -286.97992079 780.75537062 -285.57421875 782.18115234 C-280.22570009 787.53636442 -274.71407247 792.48137368 -268.8034668 797.20849609 C-266.78893702 798.82703624 -264.83482794 800.47499675 -262.90942383 802.19702148 C-254.03477602 810.12459542 -244.51441317 816.91705674 -234.67651367 823.59692383 C-232.65512128 824.97285801 -230.64710587 826.36529691 -228.64379883 827.76733398 C-186.91573841 856.67743583 -138.85333885 876.47936605 -89.44165039 887.48999023 C-87.4513531 887.93659965 -85.46343536 888.39402732 -83.47875977 888.86499023 C-49.83593543 896.84445328 -15.27233866 897.77880564 19.14526367 897.42358398 C20.03606628 897.41601074 20.9268689 897.4084375 21.84466553 897.40063477 C25.92463695 897.33820398 29.66505394 897.09927522 33.65698242 896.18530273 C35.41747627 896.01378465 37.18106096 895.87218568 38.94604492 895.75561523 C60.06773463 894.27174225 79.96213341 890.90380768 100.54321289 885.9362793 C103.40315541 885.24652054 106.26592291 884.57011774 109.12963867 883.89624023 C161.8793226 871.3158773 213.09040243 845.61181954 255.65698242 812.18530273 C256.88674805 811.22624023 256.88674805 811.22624023 258.14135742 810.24780273 C273.59006224 798.04627791 288.03141928 784.89160437 301.96948242 770.99780273 C302.68380936 770.28749405 302.68380936 770.28749405 303.41256714 769.56283569 C309.05039981 763.9490605 314.53489011 758.27515995 319.65698242 752.18530273 C320.16156982 751.58741943 320.66615723 750.98953613 321.18603516 750.37353516 C334.99678093 733.85392208 347.49266993 716.59593078 358.65698242 698.18530273 C359.08962402 697.47696289 359.52226563 696.76862305 359.96801758 696.03881836 C391.65384303 643.98788113 409.82419344 587.34519108 417.65698242 527.18530273 C417.80248535 526.07364746 417.94798828 524.96199219 418.09790039 523.81665039 C429.43478217 431.72142353 405.03593781 333.81936923 333.46191406 225.67993164 C320.94069455 209.70481387 307.38018913 194.84444439 293.09448242 180.43530273 C292.23226074 179.5600293 291.37003906 178.68475586 290.48168945 177.78295898 C285.26797867 172.56233739 279.86866962 167.76317799 274.11035156 163.15063477 C272.17279271 161.59850532 270.27595863 160.02516692 268.40698242 158.39233398 C253.56601069 145.4697265 237.50062993 134.32479615 220.65698242 124.18530273 C219.694375 123.60135742 218.73176758 123.01741211 217.73999023 122.41577148 C193.16924407 107.59061502 167.5742086 96.049508 140.65698242 86.18530273 C139.7162085 85.83467773 138.77543457 85.48405273 137.80615234 85.12280273 C105.34286918 73.11090635 70.61135217 66.52651525 36.13867188 64.41894531 C33.65698242 64.18530273 33.65698242 64.18530273 31.31918335 63.6817627 C28.68017202 63.18962724 26.26156592 63.0388737 23.58007812 63.00830078 C22.58784744 62.99564682 21.59561676 62.98299286 20.57331848 62.96995544 C19.50393539 62.96238724 18.43455231 62.95481903 17.33276367 62.94702148 C16.21056931 62.93731827 15.08837494 62.92761505 13.93217468 62.9176178 C10.27790779 62.89257317 6.62382676 62.88006807 2.96948242 62.87280273 C1.72690674 62.87018433 0.48433105 62.86756592 -0.79589844 62.86486816 C-20.97378011 62.86030628 -40.43211673 63.97304108 -60.34301758 67.18530273 Z " fill="#FEFEFE" transform="translate(483.343017578125,14.814697265625)"/>
<path d="M0 0 C7.92517462 6.43920438 13.80431463 15.50383896 15.01171875 25.6875 C15.6642316 40.26028708 11.86249973 54.31575976 8.625 68.42578125 C8.27332764 69.96999756 8.27332764 69.96999756 7.91455078 71.54541016 C7.07395628 75.23520377 6.23190841 78.92460678 5.37792969 82.61132812 C3.80769382 89.44172815 2.4821977 96.30101564 1.2121582 103.19262695 C-0.12998948 110.3722205 -1.69927565 117.49019712 -3.3125 124.61328125 C-5.32870571 133.52454494 -7.19207224 142.44562974 -8.875 151.42578125 C-10.50491791 160.11258443 -12.29477265 168.74390204 -14.25 177.36328125 C-16.79847272 188.60032934 -19.09062594 199.8751859 -21.31918335 211.17874146 C-23.49498034 222.20003327 -25.83433705 233.17179249 -28.31640625 244.12890625 C-29.98516399 251.53962611 -31.46330065 258.96663822 -32.83666992 266.43701172 C-34.39723164 274.8043129 -36.28154407 283.09300545 -38.15966797 291.39379883 C-39.74434835 298.44547581 -41.1922541 305.50533642 -42.5 312.61328125 C-48.89309636 346.92604985 -48.89309636 346.92604985 -62.375 357.42578125 C-68.38428742 360.83294151 -74.45803463 363.36801963 -81.39453125 363.7421875 C-82.16224854 363.78448486 -82.92996582 363.82678223 -83.72094727 363.87036133 C-87.11634072 364.03268688 -90.51165239 364.18989845 -93.90820312 364.32617188 C-95.46185457 364.38890839 -97.01530329 364.45714072 -98.56835938 364.53320312 C-110.67992962 365.10111407 -118.98123348 363.16449238 -128.34765625 355.3125 C-133.78567722 350.2516828 -136.66282988 345.13489202 -139.203125 338.15991211 C-139.46258408 337.45714866 -139.72204315 336.7543852 -139.98936462 336.03032589 C-142.77254402 328.43800397 -145.36705367 320.78354397 -147.9375 313.1171875 C-148.45119456 311.59204596 -148.96515309 310.06699331 -149.47935486 308.54202271 C-150.55876441 305.33933694 -151.63660596 302.13613007 -152.71310425 298.9324646 C-154.3938067 293.93096685 -156.0783899 288.93078215 -157.76391602 283.9309082 C-158.04324636 283.10230254 -158.32257669 282.27369688 -158.61037159 281.41998196 C-159.1713273 279.75601159 -159.73229912 278.09204666 -160.29328728 276.42808723 C-161.12516717 273.96031076 -161.95672755 271.49242681 -162.78822327 269.02452087 C-166.93723088 256.71196862 -171.10793706 244.40698718 -175.3125 232.11328125 C-175.58282043 231.32270325 -175.85314087 230.53212524 -176.13165283 229.71759033 C-181.18508657 214.94414749 -186.27068897 200.18171758 -191.375 185.42578125 C-192.90189234 188.22120943 -193.75078834 190.66477367 -194.28540039 193.79980469 C-194.43674942 194.66756531 -194.58809845 195.53532593 -194.74403381 196.42938232 C-194.90197922 197.37178772 -195.05992462 198.31419312 -195.22265625 199.28515625 C-195.39498276 200.28025208 -195.56730927 201.2753479 -195.74485779 202.30059814 C-196.11814599 204.45825198 -196.48873107 206.61637482 -196.85693359 208.77490234 C-197.85019022 214.59326434 -198.86475975 220.40790482 -199.87890625 226.22265625 C-200.08653595 227.41515991 -200.29416565 228.60766357 -200.50808716 229.83630371 C-202.52688817 241.38601954 -204.6874685 252.9070438 -206.875 264.42578125 C-209.83681852 280.04754131 -212.68592894 295.68499014 -215.42758179 311.34692383 C-216.54307631 317.71220666 -217.66862582 324.07572193 -218.79310608 330.43942261 C-219.65455898 335.31967889 -220.51059895 340.20072503 -221.35205078 345.08447266 C-222.09794284 349.41113522 -222.86206133 353.73417417 -223.64056396 358.05508423 C-223.91617486 359.60363633 -224.18507118 361.15340266 -224.4463501 362.70443726 C-226.64685524 375.73801724 -230.59785038 387.05831121 -241.375 395.42578125 C-251.16166145 401.33609939 -261.05654106 403.01051407 -272.375 401.42578125 C-281.86206037 398.80048854 -290.3913418 392.68924384 -295.671875 384.38671875 C-303.18000066 370.29538146 -300.58712103 355.37852373 -297.58572388 340.4659729 C-296.64448061 335.7839121 -295.75237112 331.09231972 -294.8515625 326.40234375 C-294.65456253 325.38346573 -294.45756256 324.36458771 -294.2545929 323.31483459 C-291.91227113 311.14470841 -289.78150838 298.93742202 -287.63876343 286.730896 C-283.95328792 265.739201 -280.1685825 244.76950203 -276.19851685 223.82949829 C-273.10154934 207.48107833 -270.17848927 191.10619049 -267.31396484 174.71557617 C-264.39656229 158.0365289 -261.34308064 141.38728562 -258.18276978 124.75259399 C-256.16934111 114.15447973 -254.19845554 103.55399647 -252.39453125 92.91796875 C-252.23762817 91.99753281 -252.0807251 91.07709686 -251.91906738 90.12876892 C-251.1844959 85.81171658 -250.46095741 81.49334439 -249.75732422 77.17114258 C-246.94200316 60.25402541 -242.480638 48.70315025 -228.73046875 37.85546875 C-222.10346607 33.83310891 -216.08705617 32.96571725 -208.5 32.80078125 C-206.8149857 32.74987447 -205.13007517 32.69536555 -203.4453125 32.63671875 C-202.71070801 32.61915527 -201.97610352 32.6015918 -201.21923828 32.58349609 C-199.27960359 32.53198976 -199.27960359 32.53198976 -197.375 31.42578125 C-185.91463559 30.69813907 -174.99161589 33.98547411 -165.8125 40.92578125 C-155.83641716 50.28745259 -152.31131274 64.36504869 -148.18359375 76.9375 C-147.51089891 78.95245602 -146.83696671 80.96699932 -146.16188049 82.9811554 C-144.38829761 88.28301856 -142.63050675 93.58998059 -140.87640381 98.89831543 C-139.13916844 104.14799336 -137.38878612 109.39327621 -135.63867188 114.63867188 C-133.56959797 120.84188366 -131.50124027 127.04532252 -129.4387207 133.25071716 C-124.91152736 146.86547494 -120.3267121 160.45949656 -115.68359375 174.03515625 C-115.39941526 174.8660848 -115.11523678 175.69701336 -114.82244682 176.55312157 C-110.04203894 190.5228781 -105.22668608 204.48061565 -100.375 218.42578125 C-97.55998488 207.66658014 -95.17746701 196.87290559 -93.05517578 185.95703125 C-90.48344552 172.74409796 -87.80338827 159.56436536 -84.875 146.42578125 C-82.02037906 133.60159441 -79.4126981 120.73736154 -76.86575317 107.8487854 C-74.38096693 95.28874242 -71.74749958 82.77418275 -68.95581055 70.27880859 C-67.38616554 63.2062098 -65.90254521 56.12750651 -64.5234375 49.015625 C-64.36917801 48.22425644 -64.21491852 47.43288788 -64.0559845 46.61753845 C-63.31056339 42.78731693 -62.57585511 38.9555669 -61.85913086 35.11987305 C-59.23796184 21.37862596 -55.56866218 8.81928315 -44 0.05078125 C-30.16470761 -9.25929486 -14.22667689 -9.42985327 0 0 Z " fill="#FEFEFE" transform="translate(628.375,284.57421875)"/>
</svg>
